<svg width="20" height="20" viewBox="0 0 20 20" fill="none" xmlns="http://www.w3.org/2000/svg">
<path fill-rule="evenodd" clip-rule="evenodd" d="M18.8003 5.79625C20.9559 10.3046 19.3577 15.7129 15.0979 18.3255C10.838 20.938 5.29291 19.9107 2.25168 15.9455C-0.789558 11.9803 -0.344225 6.35844 3.28337 2.9215C6.91096 -0.515443 12.5486 -0.656918 16.3441 2.59375L18.4694 0.4675C18.7624 0.174444 19.2376 0.174444 19.5306 0.4675C19.8237 0.760556 19.8237 1.23569 19.5306 1.52875L10.5306 10.5288C10.2376 10.8218 9.76243 10.8218 9.46937 10.5288C9.17632 10.2357 9.17632 9.76056 9.46937 9.4675L12.0681 6.86875C10.6182 5.90981 8.6993 6.07307 7.4322 7.26318C6.1651 8.45328 5.88202 10.3582 6.7483 11.8653C7.61457 13.3724 9.40306 14.0866 11.0692 13.5908C12.7353 13.0949 13.8422 11.519 13.7434 9.78344C13.7201 9.36922 14.037 9.01455 14.4513 8.99125C14.8655 8.96795 15.2201 9.28485 15.2434 9.69906C15.3843 12.1572 13.798 14.383 11.4284 15.0519C9.0589 15.7209 6.5428 14.6533 5.37739 12.4844C4.21198 10.3155 4.71038 7.62811 6.576 6.02137C8.44163 4.41462 11.1732 4.32024 13.1453 5.79437L15.2781 3.66156C12.0414 0.974274 7.30002 1.15714 4.27992 4.08575C1.25983 7.01435 0.931232 11.7479 3.51771 15.0657C6.10419 18.3835 10.7749 19.2198 14.3518 17.0055C17.9288 14.7912 19.2629 10.2377 17.4466 6.44312C17.2679 6.0693 17.4262 5.62144 17.8 5.44281C18.1738 5.26418 18.6217 5.42242 18.8003 5.79625Z" fill="#272727"/>
</svg>
